<svg width="36" height="36" viewBox="0 0 36 36" fill="none" xmlns="http://www.w3.org/2000/svg">
<path d="M16.7092 1.75689C16.089 2.01379 15.533 2.56978 14.4211 3.68166C13.3095 4.79329 12.7532 5.34951 12.4964 5.96963C12.1538 6.79656 12.1538 7.72579 12.4964 8.55272C12.7533 9.17292 13.3092 9.72888 14.4212 10.8408C15.5325 11.9521 16.0892 12.5087 16.7092 12.7656C17.5361 13.1081 18.4654 13.1081 19.2923 12.7656C19.9126 12.5087 20.4685 11.9527 21.5805 10.8408C22.6924 9.72888 23.2467 9.17292 23.5036 8.55272C23.8462 7.72579 23.8462 6.79656 23.5036 5.96963C23.2467 5.34943 22.6924 4.79357 21.5805 3.68166C20.4685 2.56976 19.9126 2.01379 19.2923 1.75689C18.4654 1.41437 17.5362 1.41437 16.7092 1.75689Z" stroke="#E6FEF9" stroke-width="3" stroke-linecap="round" stroke-linejoin="round"/>
<path d="M5.96979 12.4953C5.34957 12.7522 4.7936 13.3081 3.68166 14.42C2.57004 15.5316 2.01377 16.0879 1.7569 16.708C1.41437 17.5349 1.41437 18.4642 1.7569 19.2911C2.0138 19.9113 2.56978 20.4672 3.68171 21.5791C4.79301 22.6904 5.3497 23.2471 5.96974 23.5039C6.79669 23.8464 7.72594 23.8464 8.5529 23.5039C9.17311 23.247 9.72908 22.6911 10.841 21.5792C11.953 20.4672 12.5073 19.9113 12.7642 19.2911C13.1067 18.4642 13.1067 17.5349 12.7642 16.708C12.5073 16.0878 11.953 15.5319 10.841 14.42C9.72908 13.3081 9.17311 12.7522 8.5529 12.4953C7.72594 12.1527 6.79674 12.1527 5.96979 12.4953Z" stroke="#E6FEF9" stroke-width="3" stroke-linecap="round" stroke-linejoin="round"/>
<path d="M25.1606 14.42C24.0489 15.5316 23.4927 16.0879 23.2358 16.708C22.8933 17.5349 22.8933 18.4642 23.2358 19.2911C23.4927 19.9113 24.0487 20.4672 25.1606 21.5791C26.2719 22.6904 26.8286 23.2471 27.4486 23.5039C28.2756 23.8464 29.2048 23.8464 30.0318 23.5039C30.652 23.247 31.208 22.6911 32.3199 21.5792C33.4318 20.4673 33.9862 19.9113 34.2431 19.2911C34.5856 18.4642 34.5856 17.5349 34.2431 16.708C33.9862 16.0878 33.4318 15.5319 32.3199 14.42C31.208 13.3081 30.652 12.7522 30.0318 12.4953C29.2048 12.1527 28.2756 12.1527 27.4487 12.4953C26.8285 12.7521 26.2725 13.3081 25.1606 14.42Z" stroke="#E6FEF9" stroke-width="3" stroke-linecap="round" stroke-linejoin="round"/>
<path d="M16.7092 23.2344C16.089 23.4913 15.533 24.0473 14.4211 25.1592C13.3095 26.2708 12.7532 26.8271 12.4964 27.4472C12.1538 28.2741 12.1538 29.2033 12.4964 30.0303C12.7533 30.6505 13.3092 31.2064 14.4212 32.3183C15.5325 33.4296 16.0892 33.9863 16.7092 34.2431C17.5361 34.5856 18.4654 34.5856 19.2923 34.2431C19.9126 33.9862 20.4685 33.4303 21.5805 32.3183C22.6924 31.2064 23.2467 30.6505 23.5036 30.0303C23.8462 29.2033 23.8462 28.2741 23.5036 27.4472C23.2467 26.827 22.6924 26.2711 21.5805 25.1592C20.4685 24.0473 19.9126 23.4913 19.2923 23.2344C18.4654 22.8919 17.5362 22.8919 16.7092 23.2344Z" stroke="#E6FEF9" stroke-width="3" stroke-linecap="round" stroke-linejoin="round"/>
</svg>
