<svg width="20" height="20" viewBox="0 0 20 20" fill="none" xmlns="http://www.w3.org/2000/svg">
<path d="M7.14548 5.13478C7.19486 4.13951 7.44542 3.17226 7.87399 2.28809C7.05383 2.51419 6.27065 2.87088 5.55563 3.34864C4.2401 4.22766 3.21484 5.47677 2.60933 6.93849C2.00386 8.40023 1.84466 10.0088 2.15328 11.5606C2.46196 13.1124 3.22391 14.5384 4.34273 15.6573C5.46156 16.7761 6.88757 17.538 8.43942 17.8467C9.9912 18.1553 11.5998 17.9961 13.0615 17.3907C14.5232 16.7852 15.7723 15.7599 16.6514 14.4444C17.1292 13.7292 17.4848 12.9454 17.7109 12.125C16.8269 12.5535 15.8603 12.8051 14.8652 12.8545L14.5 12.8643C12.5469 12.8643 10.674 12.0881 9.29294 10.7071C7.91193 9.32604 7.13571 7.45306 7.13571 5.50001L7.14548 5.13478ZM9.14255 5.76564C9.20824 7.09154 9.76385 8.34984 10.707 9.29299C11.7129 10.2989 13.0774 10.8643 14.5 10.8643L14.7656 10.8574C16.0915 10.7918 17.3498 10.2361 18.293 9.29299C18.579 9.00699 19.0091 8.92141 19.3828 9.07619C19.7564 9.23101 20 9.59561 20 10C20 11.9778 19.4133 13.9112 18.3144 15.5557C17.2157 17.2001 15.6543 18.4824 13.8271 19.2393C11.9999 19.9962 9.98861 20.1935 8.0488 19.8077C6.1091 19.4218 4.32712 18.4698 2.92867 17.0713C1.53021 15.6729 0.578225 13.8909 0.192333 11.9512C-0.19352 10.0114 0.00381536 8.00013 0.760694 6.17287C1.51756 4.34568 2.79987 2.78434 4.4443 1.68555C6.08879 0.586735 8.02216 7.54129e-07 9.99997 0L10.1494 0.0107422C10.4923 0.0624411 10.7883 0.290251 10.9238 0.617189C11.0593 0.944257 11.0107 1.31469 10.8047 1.59375L10.707 1.70704C9.70107 2.71298 9.13571 4.0774 9.13571 5.50001L9.14255 5.76564Z" fill="#E6FEF9"/>
</svg>
