<svg width="25" height="24" viewBox="0 0 25 24" fill="none" xmlns="http://www.w3.org/2000/svg">
<path d="M15.0556 19.7647H24M1 19.7647H3.55556M3.55556 19.7647C3.55556 21.5515 4.98576 23 6.75 23C8.51424 23 9.94444 21.5515 9.94444 19.7647C9.94444 17.9779 8.51424 16.5294 6.75 16.5294C4.98576 16.5294 3.55556 17.9779 3.55556 19.7647ZM22.7222 12H24M1 12H9.94444M13.7778 4.23529H24M13.7778 4.23529C13.7778 2.44849 12.3476 1 10.5833 1C8.81909 1 7.38889 2.44849 7.38889 4.23529C7.38889 6.0221 8.81909 7.47059 10.5833 7.47059C12.3476 7.47059 13.7778 6.0221 13.7778 4.23529ZM1 4.23529H2.27778M18.25 15.2353C16.4858 15.2353 15.0556 13.7868 15.0556 12C15.0556 10.2132 16.4858 8.76471 18.25 8.76471C20.0142 8.76471 21.4444 10.2132 21.4444 12C21.4444 13.7868 20.0142 15.2353 18.25 15.2353Z" stroke="#00313C" stroke-width="2" stroke-linecap="round" stroke-linejoin="round"/>
</svg>
