<svg width="30" height="30" viewBox="0 0 30 30" fill="none" xmlns="http://www.w3.org/2000/svg">
<path d="M29 23.8596V14.3543C29 13.4388 28.9992 12.9808 28.8855 12.5549C28.7847 12.1773 28.6193 11.8201 28.3955 11.4973C28.1429 11.133 27.7917 10.8309 27.088 10.228L18.688 3.03216C17.3814 1.91289 16.7281 1.35354 15.9929 1.14067C15.3451 0.953109 14.6546 0.953109 14.0067 1.14067C13.2721 1.35338 12.6197 1.9122 11.3151 3.02978L2.91235 10.228C2.20862 10.8309 1.85757 11.133 1.60498 11.4973C1.38114 11.8201 1.21446 12.1773 1.1137 12.5549C1 12.9809 1 13.4388 1 14.3543V23.8596C1 25.4562 1 26.2542 1.26642 26.8839C1.62165 27.7235 2.30256 28.3914 3.16016 28.7392C3.80336 29 4.61875 29 6.24955 29C7.88034 29 8.69664 29 9.33984 28.7392C10.1974 28.3914 10.8782 27.7237 11.2334 26.884C11.4998 26.2543 11.5 25.456 11.5 23.8594V22.1461C11.5 20.2537 13.0785 18.7195 15.0114 18.7195C16.9444 18.7195 18.5 20.2537 18.5 22.1461V23.8594C18.5 25.456 18.5 26.2543 18.7664 26.884C19.1216 27.7237 19.8026 28.3914 20.6602 28.7392C21.3034 29 22.1188 29 23.7495 29C25.3803 29 26.1966 29 26.8398 28.7392C27.6974 28.3914 28.3782 27.7235 28.7334 26.8839C28.9998 26.2542 29 25.4562 29 23.8596Z" stroke="#00313C" stroke-width="2" stroke-linecap="round" stroke-linejoin="round"/>
</svg>
