<svg width="31" height="31" viewBox="0 0 31 31" fill="none" xmlns="http://www.w3.org/2000/svg">
<path d="M29.5 24.3596V14.8543C29.5 13.9388 29.4992 13.4808 29.3855 13.0549C29.2847 12.6773 29.1193 12.3201 28.8955 11.9973C28.6429 11.633 28.2917 11.3309 27.588 10.728L19.188 3.53216C17.8814 2.41289 17.2281 1.85354 16.4929 1.64067C15.8451 1.45311 15.1546 1.45311 14.5067 1.64067C13.7721 1.85338 13.1197 2.4122 11.8151 3.52978L3.41235 10.728C2.70862 11.3309 2.35757 11.633 2.10498 11.9973C1.88114 12.3201 1.71446 12.6773 1.6137 13.0549C1.5 13.4809 1.5 13.9388 1.5 14.8543V24.3596C1.5 25.9562 1.5 26.7542 1.76642 27.3839C2.12165 28.2235 2.80256 28.8914 3.66016 29.2392C4.30336 29.5 5.11875 29.5 6.74955 29.5C8.38034 29.5 9.19664 29.5 9.83984 29.2392C10.6974 28.8914 11.3782 28.2237 11.7334 27.384C11.9998 26.7543 12 25.956 12 24.3594V22.6461C12 20.7537 13.5785 19.2195 15.5114 19.2195C17.4444 19.2195 19 20.7537 19 22.6461V24.3594C19 25.956 19 26.7543 19.2664 27.384C19.6216 28.2237 20.3026 28.8914 21.1602 29.2392C21.8034 29.5 22.6188 29.5 24.2495 29.5C25.8803 29.5 26.6966 29.5 27.3398 29.2392C28.1974 28.8914 28.8782 28.2235 29.2334 27.3839C29.4998 26.7542 29.5 25.9562 29.5 24.3596Z" stroke="#F5F4F2" stroke-width="3" stroke-linecap="round" stroke-linejoin="round"/>
</svg>
