<svg width="30" height="30" viewBox="0 0 30 30" fill="none" xmlns="http://www.w3.org/2000/svg">
<path d="M1.01477 17.0043C1.88294 23.6468 7.81406 29.005 15.0016 29.005C22.1885 29.005 28.119 23.6468 28.9872 17.0043C29.1121 16.0498 28.3721 15.2562 27.4046 15.2085C25.5421 15.1175 21.856 15.0049 15.001 15.0049C8.14595 15.0049 4.45991 15.1175 2.59798 15.2085C1.62922 15.2562 0.889832 16.0498 1.01477 17.0043Z" fill="#F5F4F2" stroke="#00313C" stroke-width="2" stroke-linecap="round" stroke-linejoin="round"/>
<path d="M27.3487 15.2055C27.6858 14.4246 27.8436 13.579 27.8109 12.7299C27.7782 11.8809 27.5557 11.0497 27.1595 10.2966C26.7633 9.54357 26.2034 8.88749 25.5204 8.37595C24.8373 7.86441 24.0482 7.51023 23.2103 7.33908C22.3723 7.16793 21.5065 7.18409 20.6757 7.3864C19.8448 7.58871 19.0697 7.9721 18.4064 8.50877C17.7432 9.04545 17.2085 9.72196 16.8411 10.4893C16.4737 11.2566 16.2828 12.0955 16.2822 12.9452C16.2812 13.6501 16.4116 14.3491 16.6667 15.007" fill="#F5F4F2"/>
<path d="M27.3487 15.2055C27.6858 14.4246 27.8436 13.579 27.8109 12.7299C27.7782 11.8809 27.5557 11.0497 27.1595 10.2966C26.7633 9.54357 26.2034 8.88749 25.5204 8.37595C24.8373 7.86441 24.0482 7.51023 23.2103 7.33908C22.3723 7.16793 21.5065 7.18409 20.6757 7.3864C19.8448 7.58871 19.0697 7.9721 18.4064 8.50877C17.7432 9.04545 17.2085 9.72196 16.8411 10.4893C16.4737 11.2566 16.2828 12.0955 16.2822 12.9452C16.2812 13.6501 16.4116 14.3491 16.6667 15.007" stroke="#00313C" stroke-width="2" stroke-linecap="round" stroke-linejoin="round"/>
<path d="M20.0669 7.51347C20.3821 5.82583 19.7651 4.15727 18.3754 3.36054C16.9479 2.54153 15.125 2.88454 13.802 4.07581C13.742 3.95445 13.6779 3.83517 13.6097 3.71818C12.195 1.2828 9.30861 0.306612 7.16349 1.53671C5.15549 2.6879 4.50836 5.36382 5.59438 7.69929C4.35459 7.79602 3.24487 8.4012 2.63811 9.44548C1.57644 11.2719 2.45487 13.7492 4.59999 14.9793C4.68584 15.0283 4.7717 15.0748 4.85884 15.1181" fill="#F5F4F2"/>
<path d="M20.0669 7.51347C20.3821 5.82583 19.7651 4.15727 18.3754 3.36054C16.9479 2.54153 15.125 2.88454 13.802 4.07582C13.742 3.95445 13.6779 3.83517 13.6097 3.71818C12.195 1.2828 9.30861 0.306612 7.16349 1.53671C5.15549 2.6879 4.50836 5.36382 5.59438 7.69929C4.35459 7.79602 3.24487 8.4012 2.63811 9.44548C1.57644 11.2719 2.45487 13.7492 4.59999 14.9793C4.68584 15.0283 4.7717 15.0748 4.85884 15.1181" stroke="#00313C" stroke-width="2" stroke-linecap="round" stroke-linejoin="round"/>
<path d="M10.7158 7.8584C11.599 8.80078 12.2199 9.95525 12.5176 11.2083C12.8153 12.4613 12.7795 13.7697 12.4137 15.0048" fill="#F5F4F2"/>
<path d="M10.7158 7.8584C11.599 8.80078 12.2199 9.95525 12.5176 11.2083C12.8153 12.4613 12.7795 13.7697 12.4137 15.0048" stroke="#00313C" stroke-width="2" stroke-linecap="round" stroke-linejoin="round"/>
<path d="M23.7908 18.8232C22.9501 20.6918 21.5388 22.2502 19.7568 23.2778L23.7908 18.8232Z" fill="#F5F4F2"/>
<path d="M23.7908 18.8232C22.9501 20.6918 21.5388 22.2502 19.7568 23.2778" stroke="#00313C" stroke-width="2" stroke-linecap="round" stroke-linejoin="round"/>
</svg>
