<svg width="30" height="30" viewBox="0 0 30 30" fill="none" xmlns="http://www.w3.org/2000/svg">
<path d="M15 20.25L20.25 15M20.25 15L15 9.75M20.25 15H1M9.75 6.68503V6.60034C9.75 4.64016 9.75 3.65934 10.1315 2.91064C10.467 2.25208 11.0021 1.71703 11.6606 1.38148C12.4093 1 13.3902 1 15.3503 1H23.4003C25.3605 1 26.3392 1 27.0879 1.38148C27.7465 1.71703 28.2833 2.25208 28.6189 2.91064C29 3.6586 29 4.63824 29 6.59459V23.4063C29 25.3626 29 26.3408 28.6189 27.0888C28.2833 27.7474 27.7465 28.2833 27.0879 28.6189C26.34 29 25.3618 29 23.4054 29H15.3446C13.3882 29 12.4086 29 11.6606 28.6189C11.0021 28.2833 10.467 27.7468 10.1315 27.0883C9.75 26.3396 9.75 25.3602 9.75 23.4V23.3125" stroke="#00313C" stroke-width="2" stroke-linecap="round" stroke-linejoin="round"/>
</svg>
