<svg width="26" height="26" viewBox="0 0 26 26" fill="none" xmlns="http://www.w3.org/2000/svg">
<path d="M16.5455 13C16.5455 11.0419 14.9581 9.45455 13 9.45455C11.0419 9.45455 9.45455 11.0419 9.45455 13C9.45455 14.9581 11.0419 16.5455 13 16.5455C14.9581 16.5455 16.5455 14.9581 16.5455 13ZM18.9091 13C18.9091 16.2635 16.2635 18.9091 13 18.9091C9.7365 18.9091 7.09091 16.2635 7.09091 13C7.09091 9.7365 9.7365 7.09091 13 7.09091C16.2635 7.09091 18.9091 9.7365 18.9091 13Z" fill="#E6FEF9"/>
<path d="M11.8182 3.54545V1.18182C11.8182 0.529118 12.3473 0 13 0C13.6527 0 14.1818 0.529118 14.1818 1.18182V3.54545C14.1818 4.19815 13.6527 4.72727 13 4.72727C12.3473 4.72727 11.8182 4.19815 11.8182 3.54545Z" fill="#E6FEF9"/>
<path d="M11.8182 24.8182V22.4545C11.8182 21.8018 12.3473 21.2727 13 21.2727C13.6527 21.2727 14.1818 21.8018 14.1818 22.4545V24.8182C14.1818 25.4709 13.6527 26 13 26C12.3473 26 11.8182 25.4709 11.8182 24.8182Z" fill="#E6FEF9"/>
<path d="M3.80896 3.80896C4.24165 3.37628 4.92592 3.34958 5.39011 3.72817L5.48013 3.80896L7.14668 5.47551L7.22746 5.56553C7.60589 6.02972 7.5793 6.71406 7.14668 7.14668C6.71406 7.5793 6.02972 7.60589 5.56553 7.22746L5.47551 7.14668L3.80896 5.48013L3.72817 5.39011C3.34958 4.92592 3.37628 4.24165 3.80896 3.80896Z" fill="#E6FEF9"/>
<path d="M18.8535 18.8535C19.2862 18.4208 19.9705 18.3941 20.4347 18.7727L20.5247 18.8535L22.1912 20.5201L22.272 20.6101C22.6504 21.0743 22.6238 21.7586 22.1912 22.1912C21.7586 22.6238 21.0743 22.6504 20.6101 22.272L20.5201 22.1912L18.8535 20.5247L18.7727 20.4347C18.3941 19.9705 18.4208 19.2862 18.8535 18.8535Z" fill="#E6FEF9"/>
<path d="M3.54545 11.8182C4.19815 11.8182 4.72727 12.3473 4.72727 13C4.72727 13.6527 4.19815 14.1818 3.54545 14.1818H1.18182C0.529118 14.1818 0 13.6527 0 13C0 12.3473 0.529118 11.8182 1.18182 11.8182H3.54545Z" fill="#E6FEF9"/>
<path d="M24.8182 11.8182C25.4709 11.8182 26 12.3473 26 13C26 13.6527 25.4709 14.1818 24.8182 14.1818H22.4545C21.8018 14.1818 21.2727 13.6527 21.2727 13C21.2727 12.3473 21.8018 11.8182 22.4545 11.8182H24.8182Z" fill="#E6FEF9"/>
<path d="M5.56553 18.7727C6.02972 18.3942 6.71403 18.4209 7.14668 18.8535C7.57924 19.2862 7.60596 19.9705 7.22746 20.4347L7.14668 20.5247L5.48013 22.1912C5.01862 22.6526 4.27047 22.6526 3.80896 22.1912C3.34747 21.7297 3.34753 20.9816 3.80896 20.5201L5.47551 18.8535L5.56553 18.7727Z" fill="#E6FEF9"/>
<path d="M20.6101 3.72817C21.0743 3.34967 21.7586 3.37631 22.1912 3.80896C22.6238 4.24162 22.6505 4.92595 22.272 5.39011L22.1912 5.48013L20.5247 7.14668C20.0632 7.60808 19.315 7.60808 18.8535 7.14668C18.392 6.68518 18.3921 5.93705 18.8535 5.47551L20.5201 3.80896L20.6101 3.72817Z" fill="#E6FEF9"/>
</svg>
