<svg width="29" height="37" viewBox="0 0 29 37" fill="none" xmlns="http://www.w3.org/2000/svg">
<path d="M1.5 32.667V7.54481C1.5 5.42906 1.5 4.37039 1.90483 3.56228C2.26093 2.85145 2.82873 2.27394 3.52762 1.91175C4.32215 1.5 5.36302 1.5 7.44322 1.5H24.5289C25.569 1.5 26.0898 1.5 26.4871 1.70588C26.8365 1.88697 27.1188 2.17572 27.2969 2.53114C27.4993 2.9352 27.5 3.46453 27.5 4.52241V26.8113C27.5 27.8692 27.4993 28.3974 27.2969 28.8014C27.1188 29.1568 26.8369 29.4466 26.4874 29.6277C26.0906 29.8333 25.5704 29.8333 24.5323 29.8333H5.67857C3.37081 29.8333 1.5 31.7361 1.5 34.0833C1.5 34.8657 2.1236 35.5 2.89286 35.5H22.6752C23.7133 35.5 24.2334 35.5 24.6303 35.2943C24.9797 35.1132 25.2617 34.8237 25.4397 34.4683C25.6421 34.0642 25.6429 33.5357 25.6429 32.4778V29.8333" stroke="#F5F4F2" stroke-width="3" stroke-linecap="round" stroke-linejoin="round"/>
</svg>
