<svg width="28" height="36" viewBox="0 0 28 36" fill="none" xmlns="http://www.w3.org/2000/svg">
<path d="M1 32.167V7.04481C1 4.92906 1 3.87039 1.40483 3.06228C1.76093 2.35145 2.32873 1.77394 3.02762 1.41175C3.82215 1 4.86302 1 6.94322 1H24.0289C25.069 1 25.5898 1 25.9871 1.20588C26.3365 1.38697 26.6188 1.67572 26.7969 2.03114C26.9993 2.4352 27 2.96453 27 4.02241V26.3113C27 27.3692 26.9993 27.8974 26.7969 28.3014C26.6188 28.6568 26.3369 28.9466 25.9874 29.1277C25.5906 29.3333 25.0704 29.3333 24.0323 29.3333H5.17857C2.87081 29.3333 1 31.2361 1 33.5833C1 34.3657 1.6236 35 2.39286 35H22.1752C23.2133 35 23.7334 35 24.1303 34.7943C24.4797 34.6132 24.7617 34.3237 24.9397 33.9683C25.1421 33.5642 25.1429 33.0357 25.1429 31.9778V29.3333" stroke="#00313C" stroke-width="2" stroke-linecap="round" stroke-linejoin="round"/>
</svg>
