<svg width="22" height="25" viewBox="0 0 22 25" fill="none" xmlns="http://www.w3.org/2000/svg">
<path d="M1.51759 15.8041L2.00447 15.3064C2.16158 15.1458 2.25002 14.928 2.25002 14.7009V9.94444C2.25002 5.00457 6.16761 1.00001 11.0002 1C15.8328 0.999988 19.7503 5.00456 19.7503 9.94444V14.7009C19.7503 14.928 19.8386 15.1458 19.9957 15.3064L20.4826 15.8041C20.6313 15.9561 20.7067 16.0332 20.766 16.1177C20.8783 16.2775 20.9521 16.4617 20.9833 16.6559C20.9998 16.7587 21 16.8665 21 17.082C21 17.5747 21 17.821 20.9344 18.0197C20.8097 18.3978 20.5203 18.6946 20.1505 18.8221C19.9568 18.8889 19.7166 18.8889 19.2384 18.8889H14.7502V20.1667C14.7502 22.2838 13.0713 24 11.0002 24C8.92907 24 7.25011 22.2838 7.25011 20.1667V18.8889H2.76198C2.28379 18.8889 2.04447 18.8889 1.85084 18.8221C1.48101 18.6946 1.19032 18.3977 1.06557 18.0197C1 17.821 1 17.5747 1 17.0821C1 16.8665 1 16.7587 1.0165 16.6559C1.04768 16.4617 1.12207 16.2776 1.23438 16.1177C1.29381 16.0331 1.36845 15.9565 1.51759 15.8041Z" fill="#01262E"/>
<path d="M14.7502 18.8889V20.1667C14.7502 22.2838 13.0713 24 11.0002 24C8.92907 24 7.25011 22.2838 7.25011 20.1667V18.8889M14.7502 18.8889H7.25011M14.7502 18.8889H19.2384C19.7166 18.8889 19.9568 18.8889 20.1505 18.8221C20.5203 18.6946 20.8097 18.3978 20.9344 18.0197C21 17.821 21 17.5747 21 17.082C21 16.8665 20.9998 16.7587 20.9833 16.6559C20.9521 16.4617 20.8783 16.2775 20.766 16.1177C20.7067 16.0332 20.6313 15.9561 20.4826 15.8041L19.9957 15.3064C19.8386 15.1458 19.7503 14.928 19.7503 14.7009V9.94444C19.7503 5.00456 15.8328 0.999988 11.0002 1C6.16761 1.00001 2.25002 5.00457 2.25002 9.94444V14.7009C2.25002 14.928 2.16158 15.1458 2.00448 15.3064L1.51759 15.8041C1.36845 15.9565 1.29381 16.0331 1.23438 16.1177C1.12207 16.2776 1.04768 16.4617 1.0165 16.6559C1 16.7587 1 16.8665 1 17.0821C1 17.5747 1 17.821 1.06557 18.0197C1.19032 18.3977 1.48101 18.6946 1.85084 18.8221C2.04447 18.8889 2.28379 18.8889 2.76198 18.8889H7.25011" stroke="#E6FEF9" stroke-width="2" stroke-linecap="round" stroke-linejoin="round"/>
</svg>
