<svg width="33" height="28" viewBox="0 0 33 28" fill="none" xmlns="http://www.w3.org/2000/svg">
<path d="M24.8333 26.5C24.8333 23.7386 21.1024 21.5 16.5 21.5C11.8976 21.5 8.16667 23.7386 8.16667 26.5M31.5 21.5006C31.5 19.4503 29.4432 17.6882 26.5 16.9167M1.5 21.5006C1.5 19.4503 3.55683 17.6882 6.5 16.9167M26.5 10.2268C27.5229 9.31131 28.1667 7.98083 28.1667 6.5C28.1667 3.73858 25.9281 1.5 23.1667 1.5C21.8861 1.5 20.7179 1.98142 19.8333 2.77316M6.5 10.2268C5.47708 9.31131 4.83333 7.98083 4.83333 6.5C4.83333 3.73858 7.07191 1.5 9.83333 1.5C11.1139 1.5 12.2821 1.98142 13.1667 2.77316M16.5 16.5C13.7386 16.5 11.5 14.2614 11.5 11.5C11.5 8.73858 13.7386 6.5 16.5 6.5C19.2614 6.5 21.5 8.73858 21.5 11.5C21.5 14.2614 19.2614 16.5 16.5 16.5Z" stroke="#F5F4F2" stroke-width="3" stroke-linecap="round" stroke-linejoin="round"/>
</svg>
