<svg width="32" height="27" viewBox="0 0 32 27" fill="none" xmlns="http://www.w3.org/2000/svg">
<path d="M24.3333 26C24.3333 23.2386 20.6024 21 16 21C11.3976 21 7.66667 23.2386 7.66667 26M31 21.0006C31 18.9503 28.9432 17.1882 26 16.4167M1 21.0006C1 18.9503 3.05683 17.1882 6 16.4167M26 9.72684C27.0229 8.81131 27.6667 7.48083 27.6667 6C27.6667 3.23858 25.4281 1 22.6667 1C21.3861 1 20.2179 1.48142 19.3333 2.27316M6 9.72684C4.97708 8.81131 4.33333 7.48083 4.33333 6C4.33333 3.23858 6.57191 1 9.33333 1C10.6139 1 11.7821 1.48142 12.6667 2.27316M16 16C13.2386 16 11 13.7614 11 11C11 8.23858 13.2386 6 16 6C18.7614 6 21 8.23858 21 11C21 13.7614 18.7614 16 16 16Z" stroke="#00313C" stroke-width="2" stroke-linecap="round" stroke-linejoin="round"/>
</svg>
