<svg width="34" height="34" viewBox="0 0 34 34" fill="none" xmlns="http://www.w3.org/2000/svg">
<path d="M27.6667 25.8887C29.3233 25.8887 30.1517 25.8887 30.8051 25.6181C31.6763 25.2572 32.3683 24.5648 32.7292 23.6936C32.9998 23.0402 33 22.2126 33 20.5559V13.7945C33 11.8071 33 10.8119 32.6128 10.0521C32.272 9.38306 31.7266 8.83953 31.0576 8.49864C30.3436 8.13487 29.4238 8.11257 27.6667 8.1112M27.6667 8.1112C27.5519 8.11111 27.4336 8.11111 27.3115 8.11111H6.68924C6.56691 8.11111 6.44833 8.11111 6.33333 8.1112M27.6667 8.1112L6.33333 8.1112M27.6667 8.1112V6.68339C27.6667 4.69599 27.6667 3.7008 27.2795 2.94097C26.9386 2.27195 26.3933 1.72842 25.7243 1.38753C24.9637 1 23.9694 1 21.9781 1H12.0226C10.0313 1 9.03488 1 8.27431 1.38753C7.60528 1.72842 7.06175 2.27195 6.72087 2.94097C6.33333 3.70155 6.33333 4.69794 6.33333 6.68924V8.1112M6.33333 8.1112C4.57641 8.11257 3.65482 8.13492 2.94097 8.49864C2.27195 8.83953 1.72842 9.38306 1.38753 10.0521C1 10.8127 1 11.809 1 13.8003V20.5559C1 22.2126 1 23.0402 1.27065 23.6936C1.63152 24.5648 2.32323 25.2572 3.19444 25.6181C3.84785 25.8887 4.67619 25.8887 6.33287 25.8887M13.4444 15.2222H20.5556M11.6667 22.3333H22.3333C23.99 22.3333 24.8184 22.3333 25.4718 22.604C26.343 22.9649 27.035 23.6566 27.3958 24.5278C27.6665 25.1812 27.6665 26.01 27.6665 27.6667C27.6665 29.3233 27.6665 30.1517 27.3958 30.8051C27.035 31.6763 26.343 32.3683 25.4718 32.7292C24.8184 32.9998 23.99 33 22.3333 33H11.6667C10.01 33 9.18119 32.9998 8.52778 32.7292C7.65657 32.3683 6.96485 31.6768 6.60398 30.8056C6.33333 30.1521 6.33333 29.3229 6.33333 27.6662C6.33333 26.0095 6.33333 25.1812 6.60398 24.5278C6.96485 23.6566 7.65657 22.9649 8.52778 22.604C9.18119 22.3333 10.01 22.3333 11.6667 22.3333Z" stroke="#00313C" stroke-width="2" stroke-linecap="round" stroke-linejoin="round"/>
</svg>
