<svg width="22" height="22" viewBox="0 0 22 22" fill="none" xmlns="http://www.w3.org/2000/svg">
<path d="M9.67609 0.0243885C17.3163 -0.48124 22.9285 6.96324 20.2219 14.1717C19.8343 15.2042 19.2621 16.1407 18.6007 17.0154L21.8719 20.3689C22.3995 21.4886 21.181 22.4854 20.1876 21.7445L17.0193 18.5968C12.3676 22.3118 5.55889 21.4248 2.02761 16.6463C-2.82644 10.0752 1.55215 0.561576 9.67609 0.0243885ZM10.1392 2.23626C3.98707 2.52509 0.241731 9.19226 3.34901 14.6053C6.30466 19.7556 13.6965 20.1041 17.1592 15.277C21.0383 9.87009 17.2361 2.4407 10.6894 2.22254L10.1392 2.23694V2.23626Z" fill="#9EC2BD"/>
</svg>
