<svg width="29" height="32" viewBox="0 0 29 32" fill="none" xmlns="http://www.w3.org/2000/svg">
<path d="M16.9027 29.5811L25.0992 24.8639C25.9742 24.3604 26.4108 24.1085 26.729 23.7563C27.0105 23.4446 27.2234 23.0775 27.3534 22.6786C27.5 22.2289 27.5 21.7263 27.5 20.7239V11.2758C27.5 10.2734 27.5 9.77084 27.3534 9.3211C27.2234 8.92223 27.0105 8.55483 26.729 8.24316C26.4122 7.89244 25.9765 7.64171 25.1091 7.14249L16.9012 2.41878C16.0262 1.91522 15.5896 1.66395 15.1245 1.5654C14.713 1.4782 14.2875 1.4782 13.8759 1.5654C13.4108 1.66395 12.9727 1.91522 12.0978 2.41878L3.89968 7.13685C3.02572 7.63983 2.58908 7.89112 2.27109 8.24316C1.98956 8.55483 1.77695 8.92223 1.64694 9.3211C1.5 9.7719 1.5 10.2757 1.5 11.2829V20.7172C1.5 21.7244 1.5 22.2278 1.64694 22.6786C1.77695 23.0775 1.98956 23.4446 2.27109 23.7563C2.58927 24.1085 3.02623 24.3604 3.90122 24.8639L12.0978 29.5811C12.9727 30.0847 13.4108 30.3361 13.8759 30.4346C14.2875 30.5218 14.713 30.5218 15.1245 30.4346C15.5896 30.3361 16.0277 30.0847 16.9027 29.5811Z" stroke="#F5F4F2" stroke-width="3" stroke-linecap="round" stroke-linejoin="round"/>
<path d="M9.99662 15.9998C9.99662 18.4791 12.0128 20.4889 14.5 20.4889C16.9871 20.4889 19.0034 18.4791 19.0034 15.9998C19.0034 13.5206 16.9871 11.5108 14.5 11.5108C12.0128 11.5108 9.99662 13.5206 9.99662 15.9998Z" stroke="#F5F4F2" stroke-width="3" stroke-linecap="round" stroke-linejoin="round"/>
</svg>
