<svg width="11" height="18" viewBox="0 0 11 18" fill="none" xmlns="http://www.w3.org/2000/svg">
<path d="M0.230133 6.30573C-0.057533 6.00618 -0.0752855 5.53245 0.176421 5.21109L0.230133 5.14877L4.94447 0.239643C5.25131 -0.07988 5.74869 -0.07988 6.05553 0.239643L10.7699 5.14877C11.0767 5.46829 11.0767 5.98621 10.7699 6.30573C10.463 6.62526 9.96565 6.62526 9.65881 6.30573L5.5 1.9751L1.34119 6.30573L1.28134 6.36167C0.972732 6.62377 0.517798 6.60529 0.230133 6.30573Z" fill="#66838A"/>
<path d="M0.230133 12.8512C-0.0767112 12.5317 -0.0767112 12.0138 0.230133 11.6943C0.536976 11.3747 1.03435 11.3747 1.34119 11.6943L5.5 16.0249L9.65881 11.6943L9.71866 11.6383C10.0273 11.3762 10.4822 11.3947 10.7699 11.6943C11.0575 11.9938 11.0753 12.4675 10.8236 12.7889L10.7699 12.8512L6.05553 17.7604C5.74869 18.0799 5.25131 18.0799 4.94447 17.7604L0.230133 12.8512Z" fill="#66838A"/>
</svg>
