<svg width="24" height="24" viewBox="0 0 24 24" fill="none" xmlns="http://www.w3.org/2000/svg">
<path d="M10.8 15.6V1.2C10.8 0.537258 11.3373 0 12 0C12.6627 0 13.2 0.537258 13.2 1.2V15.6C13.2 16.2627 12.6627 16.8 12 16.8C11.3373 16.8 10.8 16.2627 10.8 15.6Z" fill="#00313C"/>
<path d="M11.243 0.269531C11.7143 -0.114889 12.4091 -0.0877767 12.8484 0.351562L18.8484 6.35156L18.9305 6.44297C19.3149 6.9143 19.2878 7.6091 18.8484 8.04844C18.4091 8.48778 17.7143 8.51489 17.243 8.13047L17.1516 8.04844L12 2.89688L6.84844 8.04844C6.37981 8.51707 5.62019 8.51707 5.15156 8.04844C4.68293 7.57981 4.68293 6.82019 5.15156 6.35156L11.1516 0.351562L11.243 0.269531Z" fill="#00313C"/>
<path d="M0 20.4V15.6C0 14.9373 0.537258 14.4 1.2 14.4C1.86274 14.4 2.4 14.9373 2.4 15.6V20.4L2.40586 20.5184C2.43309 20.7932 2.55459 21.0515 2.75156 21.2484C2.97661 21.4735 3.28174 21.6 3.6 21.6H20.4C20.7183 21.6 21.0234 21.4735 21.2484 21.2484C21.4735 21.0234 21.6 20.7183 21.6 20.4V15.6C21.6 14.9373 22.1373 14.4 22.8 14.4C23.4627 14.4 24 14.9373 24 15.6V20.4C24 21.3548 23.6204 22.2702 22.9453 22.9453C22.2702 23.6204 21.3548 24 20.4 24H3.6C2.64522 24 1.72982 23.6204 1.05469 22.9453C0.46405 22.3547 0.0994891 21.5802 0.0175781 20.7563L0 20.4Z" fill="#00313C"/>
</svg>
